<svg width="360" height="360 viewBox="0 0 234 54" fill="none" xmlns="http://www.w3.org/2000/svg">
<path d="M19 54.008C16.184 54.008 13.464 52.792 10.84 50.36C10.456 50.232 10.136 49.944 9.88 49.496C9.624 49.112 9.368 48.792 9.112 48.536C8.664 48.408 8.376 48.216 8.248 47.96C8.12 47.704 7.992 47.384 7.864 47C7.864 46.936 7.8 46.84 7.672 46.712C7.608 46.648 7.544 46.584 7.48 46.52C7.416 46.456 7.352 46.392 7.288 46.328C7.224 46.328 7.192 46.328 7.192 46.328C7.256 46.264 7.288 46.232 7.288 46.232C7.032 45.72 6.872 45.368 6.808 45.176C6.744 44.92 6.488 44.6 6.04 44.216C5.912 44.088 5.784 43.896 5.656 43.64C5.592 43.32 5.528 43.064 5.464 42.872C4.76 41.208 4.12 39.512 3.544 37.784C3.032 35.992 2.776 34.168 2.776 32.312C2.776 31.672 2.968 31.192 3.352 30.872C3.736 30.552 4.152 30.392 4.6 30.392C5.432 30.392 5.976 30.808 6.232 31.64C6.36 31.896 6.488 32.184 6.616 32.504C6.808 32.76 6.904 33.016 6.904 33.272V34.232C6.904 34.616 7 34.712 7.192 34.52C7.448 34.264 7.608 34.296 7.672 34.616C7.8 35.064 7.896 35.352 7.96 35.48C8.024 35.544 8.28 35.704 8.728 35.96C8.856 36.216 9.016 36.472 9.208 36.728C9.4 36.984 9.592 37.24 9.784 37.496V37.688C9.784 38.072 9.912 38.36 10.168 38.552C10.424 38.68 10.712 38.84 11.032 39.032L12.28 40.376C12.216 40.504 12.184 40.632 12.184 40.76C12.184 41.144 12.376 41.4 12.76 41.528C13.208 41.656 13.592 41.784 13.912 41.912C13.976 41.976 14.328 42.296 14.968 42.872C15.672 43.384 16.152 43.704 16.408 43.832C16.728 44.024 17.08 44.248 17.464 44.504C17.848 44.696 18.232 44.856 18.616 44.984C18.744 44.984 18.872 45.048 19 45.176C20.152 45.624 21.208 45.848 22.168 45.848C23.064 45.848 24.088 45.656 25.24 45.272C25.432 45.208 25.592 45.176 25.72 45.176C25.912 45.112 26.04 45.08 26.104 45.08C26.296 45.08 26.392 45.144 26.392 45.272C26.392 45.592 26.104 45.912 25.528 46.232C25.528 46.36 25.432 46.424 25.24 46.424C24.984 46.488 24.728 46.584 24.472 46.712C24.216 46.84 23.96 46.872 23.704 46.808C23.384 46.808 23.128 46.776 22.936 46.712C22.744 46.648 22.488 46.744 22.168 47C21.336 46.936 20.408 46.744 19.384 46.424C18.36 46.104 17.496 45.752 16.792 45.368C16.728 44.92 16.44 44.696 15.928 44.696C15.416 44.632 15 44.472 14.68 44.216C14.424 43.896 14.2 43.544 14.008 43.16C13.88 42.776 13.56 42.744 13.048 43.064C12.792 42.808 12.568 42.616 12.376 42.488C12.184 42.296 11.896 42.2 11.512 42.2C11.384 42.072 11.192 41.944 10.936 41.816C10.744 41.688 10.68 41.496 10.744 41.24C10.488 41.048 9.976 40.728 9.208 40.28C8.504 39.768 8.088 39.448 7.96 39.32C7.64 38.936 7.352 38.616 7.096 38.36C6.84 38.104 6.488 37.88 6.04 37.688L5.752 37.496C6.584 39.992 7.576 42.424 8.728 44.792C9.944 47.16 11.704 49.08 14.008 50.552C15.096 51.192 16.088 51.704 16.984 52.088C17.944 52.536 18.872 52.76 19.768 52.76C21.432 52.76 23.192 51.928 25.048 50.264C26.648 48.792 28.088 47.032 29.368 44.984C30.648 42.872 31.8 40.664 32.824 38.36C33.848 36.056 34.744 33.912 35.512 31.928C35.64 31.8 35.736 31.704 35.8 31.64C35.864 31.576 35.928 31.512 35.992 31.448C36.12 31.064 36.216 30.616 36.28 30.104C36.408 29.592 36.536 29.112 36.664 28.664L33.496 29.24C32.664 29.368 32.248 29.4 32.248 29.336C32.248 29.208 32.344 29.08 32.536 28.952C32.728 28.76 32.632 28.696 32.248 28.76H31.864C31.352 28.76 30.872 28.856 30.424 29.048C29.976 29.24 29.752 29.4 29.752 29.528C29.752 29.656 29.464 29.816 28.888 30.008C28.376 30.2 27.832 30.36 27.256 30.488C26.68 30.616 26.36 30.68 26.296 30.68C25.272 30.872 24.312 31.064 23.416 31.256C22.52 31.384 21.72 31.512 21.016 31.64H20.92C20.664 31.64 20.44 31.448 20.248 31.064C20.056 30.68 19.96 30.264 19.96 29.816C20.088 29.048 20.312 28.504 20.632 28.184C20.76 28.056 20.888 27.992 21.016 27.992L24.088 27.512C24.792 27.384 25.656 27.288 26.68 27.224C27.768 27.16 28.696 27 29.464 26.744L34.264 26.36L38.008 25.976C38.072 25.848 38.104 25.624 38.104 25.304L38.296 24.824C38.424 24.76 38.392 24.664 38.2 24.536C38.008 24.408 38.136 24.312 38.584 24.248C39.032 23.544 39.288 22.84 39.352 22.136C39.48 21.368 39.672 20.824 39.928 20.504C40.12 20.184 40.312 19.896 40.504 19.64C40.696 19.384 40.728 19.064 40.6 18.68C40.664 18.424 40.856 17.816 41.176 16.856C41.56 15.832 41.976 14.712 42.424 13.496C42.872 12.28 43.256 11.224 43.576 10.328C43.896 9.368 44.056 8.824 44.056 8.696L45.016 5.912C43.224 5.976 41.4 6.072 39.544 6.2C37.688 6.328 35.864 6.616 34.072 7.064C34.136 7 34.104 6.936 33.976 6.872C33.848 6.744 33.752 6.68 33.688 6.68L33.592 6.584C33.336 6.52 33.272 6.584 33.4 6.776C33.592 6.904 33.56 7.032 33.304 7.16C32.728 7.224 32.056 7.384 31.288 7.64C30.584 7.832 29.944 7.928 29.368 7.928C29.112 7.992 28.824 8.024 28.504 8.024C28.184 7.96 27.864 7.928 27.544 7.928C26.584 7.992 25.624 8.248 24.664 8.696C23.768 9.144 22.84 9.528 21.88 9.848L20.152 10.328C19.448 10.648 18.68 10.872 17.848 11C17.016 11.128 16.248 11.352 15.544 11.672L15.64 11.768C15.384 11.96 15.064 12.088 14.68 12.152C14.296 12.216 13.944 12.312 13.624 12.44C12.856 12.696 12.056 13.016 11.224 13.4C10.456 13.72 9.656 14.008 8.824 14.264C8.376 14.392 7.928 14.52 7.48 14.648C7.096 14.712 6.648 14.84 6.136 15.032C5.88 15.096 5.656 15.16 5.464 15.224C5.272 15.224 5.048 15.224 4.792 15.224C4.216 15.224 3.704 15.096 3.256 14.84C3 14.712 2.616 14.36 2.104 13.784C1.656 13.144 1.272 12.504 0.952 11.864C0.632 11.16 0.504 10.648 0.568 10.328C0.632 10.136 1.048 9.912 1.816 9.656C2.584 9.336 3.48 9.048 4.504 8.792C5.528 8.472 6.456 8.216 7.288 8.024C8.184 7.768 8.76 7.608 9.016 7.544C9.144 7.48 9.496 7.416 10.072 7.352C10.648 7.224 10.968 7.288 11.032 7.544C11.096 7.672 11.032 7.864 10.84 8.12C10.648 8.312 10.488 8.472 10.36 8.6C10.36 8.664 10.264 8.792 10.072 8.984C9.944 9.176 9.944 9.24 10.072 9.176L13.432 8.312C13.944 8.184 14.552 8.152 15.256 8.216C16.024 8.216 16.6 8.088 16.984 7.832C17.112 7.704 17.176 7.576 17.176 7.448C17.24 7.32 17.368 7.256 17.56 7.256C18.008 7.128 18.744 7 19.768 6.872C20.856 6.744 21.528 6.552 21.784 6.296C22.296 6.168 22.84 6.104 23.416 6.104C23.992 6.04 24.504 5.88 24.952 5.624C25.144 5.56 25.752 5.432 26.776 5.24C27.864 5.048 29.08 4.856 30.424 4.664C31.832 4.408 33.08 4.216 34.168 4.088C35.256 3.896 35.896 3.8 36.088 3.8H36.184C36.44 3.8 36.696 3.768 36.952 3.704C37.208 3.64 37.464 3.608 37.72 3.608C38.232 3.608 38.488 3.832 38.488 4.28C38.552 4.344 38.712 4.376 38.968 4.376C39.544 4.376 39.992 4.216 40.312 3.896C40.568 3.832 40.76 3.736 40.888 3.608C41.08 3.48 41.304 3.384 41.56 3.32C42.264 3.192 43 3.16 43.768 3.224C44.6 3.224 45.336 3.224 45.976 3.224C46.424 2.264 46.904 1.624 47.416 1.304C47.928 0.919998 48.696 0.727998 49.72 0.727998C50.424 0.727998 50.872 1.08 51.064 1.784C51.256 2.424 51.352 3 51.352 3.512C51.672 3.512 52.088 3.512 52.6 3.512C53.112 3.448 53.656 3.416 54.232 3.416C54.808 3.416 55.352 3.448 55.864 3.512C56.44 3.576 56.888 3.672 57.208 3.8C57.272 3.608 57.432 3.544 57.688 3.608C58.008 3.608 58.232 3.64 58.36 3.704C58.872 3.96 59.416 4.088 59.992 4.088C60.632 4.024 61.24 4.12 61.816 4.376C62.392 4.568 62.936 4.792 63.448 5.048C63.96 5.304 64.504 5.528 65.08 5.72C65.592 5.848 66.008 6.104 66.328 6.488C66.712 6.808 67.128 7.128 67.576 7.448C67.768 7.576 67.96 7.736 68.152 7.928C68.344 8.056 68.44 8.248 68.44 8.504C68.44 8.504 68.536 8.632 68.728 8.888C68.92 9.144 68.792 9.208 68.344 9.08C68.28 9.08 68.184 9.08 68.056 9.08C67.992 9.016 67.928 9.016 67.864 9.08C67.864 9.208 67.928 9.336 68.056 9.464C68.184 9.528 68.312 9.528 68.44 9.464C68.632 9.4 68.76 9.336 68.824 9.272C69.08 9.272 69.208 9.4 69.208 9.656C69.272 9.912 69.336 10.168 69.4 10.424C69.592 11.192 69.688 11.96 69.688 12.728C69.688 13.56 69.464 14.488 69.016 15.512C68.632 16.536 68.088 17.432 67.384 18.2C66.68 18.904 65.848 19.256 64.888 19.256C64.568 19.256 64.312 19.224 64.12 19.16C63.416 18.968 63.064 18.776 63.064 18.584C63.064 18.392 63.384 18.072 64.024 17.624C64.472 17.304 64.856 16.952 65.176 16.568C65.496 16.12 65.784 15.672 66.04 15.224C66.488 14.904 66.84 14.264 67.096 13.304C67.352 12.344 67.48 11.448 67.48 10.616C67.48 9.976 67.384 9.464 67.192 9.08C67.128 9.08 66.84 8.728 66.328 8.024C65.88 7.32 65.336 6.936 64.696 6.872C64.376 6.744 64.024 6.616 63.64 6.488C63.32 6.36 63 6.264 62.68 6.2C62.424 5.944 61.912 5.752 61.144 5.624C60.44 5.496 59.704 5.4 58.936 5.336C58.168 5.272 57.592 5.24 57.208 5.24C56.888 5.24 56.312 5.272 55.48 5.336C54.648 5.336 53.816 5.368 52.984 5.432C52.152 5.432 51.576 5.432 51.256 5.432C50.68 7.096 49.688 8.088 48.28 8.408C48.216 8.6 47.96 9.272 47.512 10.424C47.064 11.576 46.584 12.856 46.072 14.264C45.56 15.608 45.08 16.824 44.632 17.912C44.248 18.936 44.024 19.512 43.96 19.64C43.768 19.896 43.576 20.152 43.384 20.408C43.192 20.664 43.064 20.952 43 21.272C42.808 22.424 42.232 23.992 41.272 25.976C41.336 25.976 41.368 26.008 41.368 26.072C41.368 26.072 41.496 26.072 41.752 26.072C42.264 26.072 42.584 26.04 42.712 25.976C42.904 25.848 43.256 25.752 43.768 25.688C44.472 25.624 45.336 25.592 46.36 25.592C47.448 25.592 48.312 25.624 48.952 25.688C49.272 25.688 49.72 25.688 50.296 25.688C50.936 25.688 51.384 25.752 51.64 25.88C51.768 25.944 51.8 26.008 51.736 26.072C51.672 26.136 51.736 26.168 51.928 26.168H52.12C52.248 26.168 52.376 26.168 52.504 26.168C52.632 26.104 52.792 26.04 52.984 25.976L53.848 26.072C54.488 26.2 55 26.328 55.384 26.456C55.96 26.52 56.248 26.808 56.248 27.32C56.248 27.704 55.96 27.8 55.384 27.608C55.256 27.608 55.096 27.576 54.904 27.512C54.776 27.448 54.616 27.384 54.424 27.32H54.04C53.336 27.32 52.28 27.288 50.872 27.224C49.464 27.16 48.216 27.16 47.128 27.224C46.936 27.224 46.84 27.16 46.84 27.032C46.904 26.84 46.872 26.744 46.744 26.744C46.68 26.68 46.52 26.744 46.264 26.936C46.072 27.064 45.944 27.16 45.88 27.224C45.688 27.224 45.528 27.256 45.4 27.32C45.336 27.384 45.208 27.416 45.016 27.416L40.312 27.992L39.352 30.104C38.968 30.36 38.648 30.584 38.392 30.776C38.136 30.904 38.2 31.192 38.584 31.64C38.392 32.088 38.2 32.312 38.008 32.312C37.816 32.248 37.56 32.184 37.24 32.12C37.304 32.44 37.4 32.664 37.528 32.792C37.656 32.856 37.752 33.048 37.816 33.368C37.304 34.52 36.664 35.928 35.896 37.592C35.128 39.192 34.36 40.472 33.592 41.432C33.144 41.624 32.792 41.816 32.536 42.008C32.28 42.2 32.28 42.584 32.536 43.16C32.408 43.288 32.312 43.448 32.248 43.64C32.184 43.832 32.12 44.024 32.056 44.216L31.288 45.368C31.032 45.56 30.776 45.784 30.52 46.04C30.264 46.232 30.136 46.552 30.136 47C29.88 47.384 29.656 47.672 29.464 47.864C29.08 47.992 28.76 48.152 28.504 48.344C28.248 48.536 28.12 48.888 28.12 49.4C26.84 50.808 25.4 51.928 23.8 52.76C22.264 53.592 20.664 54.008 19 54.008ZM81.1038 47.288C80.7198 47.288 80.5278 47.064 80.5278 46.616C80.5278 46.296 80.6238 45.912 80.8158 45.464C81.3278 44.376 81.9038 42.84 82.5438 40.856C83.2478 38.872 84.1118 37.176 85.1358 35.768C85.8398 34.36 86.4798 32.984 87.0558 31.64C87.6958 30.232 88.3038 28.824 88.8798 27.416C88.8798 27.416 88.8158 27.384 88.6877 27.32C88.5598 27.192 88.4958 27.064 88.4958 26.936C88.1758 26.68 87.7917 26.328 87.3438 25.88C86.8958 25.368 86.8638 24.856 87.2478 24.344C87.3758 24.216 87.4398 24.152 87.4398 24.152C87.5038 24.152 87.5358 24.152 87.5358 24.152C87.5358 24.088 87.5038 24.056 87.4398 24.056C87.4398 24.056 87.4398 24.024 87.4398 23.96L87.3438 23.864C87.2798 23.864 87.2158 23.864 87.1518 23.864C87.1518 23.8 87.1198 23.768 87.0558 23.768C86.7998 23.768 86.5118 23.832 86.1918 23.96C85.8718 24.024 85.5518 24.056 85.2318 24.056C84.8478 24.056 84.3358 24.216 83.6958 24.536C83.0558 24.792 82.4798 25.016 81.9678 25.208C81.7118 25.272 81.5518 25.304 81.4878 25.304C81.4878 25.24 81.3598 25.272 81.1038 25.4C81.0398 25.464 81.0398 25.368 81.1038 25.112C81.2318 24.792 81.2958 24.568 81.2958 24.44C81.2958 24.376 81.2638 24.344 81.1998 24.344C81.0718 24.344 80.8158 24.536 80.4318 24.92C80.0478 25.24 79.7918 25.432 79.6638 25.496C79.5998 25.56 79.5678 25.656 79.5678 25.784C79.6318 25.912 79.6638 26.04 79.6638 26.168C79.6638 26.36 79.5038 26.584 79.1838 26.84C78.8638 27.032 78.6398 27.192 78.5118 27.32C78.2558 27.512 77.9358 27.64 77.5518 27.704C77.2318 27.704 76.9118 27.832 76.5918 28.088C76.2078 28.344 76.0157 28.536 76.0157 28.664C76.0798 28.792 75.8878 29.016 75.4398 29.336C74.8638 29.784 74.0638 30.456 73.0398 31.352C72.0798 32.248 71.3438 33.048 70.8318 33.752C69.6158 35.224 68.4958 36.92 67.4718 38.84C66.5118 40.76 66.0318 42.264 66.0318 43.352C66.0318 44.184 66.3838 44.6 67.0878 44.6C67.2158 44.6 67.3438 44.6 67.4718 44.6C67.5998 44.536 67.7598 44.472 67.9518 44.408L70.4478 42.968L71.0238 42.872V42.776L71.4078 43.064C71.4718 43 71.4398 42.904 71.3118 42.776C71.2478 42.584 71.2478 42.488 71.3118 42.488C71.3758 42.488 71.4078 42.52 71.4078 42.584C71.4718 42.584 71.5358 42.584 71.5998 42.584L71.7918 42.296C71.7918 42.296 71.8878 42.328 72.0798 42.392C72.3358 42.392 72.5278 42.328 72.6558 42.2C72.8478 42.136 72.8798 42.04 72.7518 41.912C72.6878 41.784 72.5918 41.688 72.4638 41.624L73.1358 41.048C73.1998 40.92 73.4558 40.792 73.9038 40.664C74.9918 39.96 75.8878 39.128 76.5918 38.168C77.3598 37.144 78.2238 36.216 79.1838 35.384H79.2798L80.4318 34.232L80.3358 33.944L81.5838 32.504H81.7758C81.8398 32.376 81.9678 32.216 82.1598 32.024C82.4158 31.832 82.5758 31.672 82.6398 31.544C82.7678 31.48 83.0558 31.16 83.5038 30.584C84.0158 29.944 84.4958 29.432 84.9438 29.048C85.4558 28.664 85.7438 28.472 85.8078 28.472C85.8718 28.472 85.9038 28.504 85.9038 28.568C85.9038 28.76 85.8078 29.048 85.6158 29.432C85.4878 29.816 85.3598 30.072 85.2318 30.2C84.7838 30.904 84.2078 31.704 83.5038 32.6C82.7998 33.432 82.3838 33.944 82.2558 34.136C81.4878 34.968 80.5598 36.088 79.4718 37.496C78.3838 38.84 77.1998 40.184 75.9198 41.528C74.6398 42.872 73.3598 44.024 72.0798 44.984C70.8638 45.88 69.7118 46.328 68.6238 46.328C67.5998 46.328 66.5118 46.008 65.3598 45.368C64.2078 44.728 63.6318 43.512 63.6318 41.72C63.6318 41.144 63.6958 40.504 63.8238 39.8C64.0158 39.032 64.3038 38.232 64.6878 37.4C64.6878 37.4 64.7518 37.336 64.8798 37.208C65.0078 37.016 65.1038 36.952 65.1678 37.016C65.2958 36.824 65.3278 36.632 65.2638 36.44C65.2638 36.184 65.2638 36.024 65.2638 35.96L65.4558 35.768C65.5838 35.064 66.0638 34.424 66.8958 33.848C67.7278 33.272 68.1758 32.824 68.2398 32.504C68.3038 32.44 68.3358 32.344 68.3358 32.216L68.7198 30.968V30.584H69.1038L69.3918 30.2L69.4878 30.008C69.3598 29.944 69.3918 29.848 69.5838 29.72C69.8398 29.528 69.9678 29.432 69.9678 29.432C70.0318 29.304 70.0958 29.208 70.1598 29.144C70.2878 29.08 70.3838 29.016 70.4478 28.952H71.1198C71.2478 28.76 71.1838 28.664 70.9278 28.664C70.6718 28.664 70.5438 28.664 70.5438 28.664C70.5438 28.6 70.5438 28.568 70.5438 28.568C70.6078 28.504 70.6398 28.44 70.6398 28.376L71.6958 27.512C72.0158 27.256 72.3358 27.032 72.6558 26.84C72.9758 26.648 73.2638 26.424 73.5198 26.168C73.7118 26.168 73.7438 26.264 73.6158 26.456C73.6798 26.584 73.7438 26.584 73.8078 26.456C73.9358 26.328 73.9998 26.264 73.9998 26.264L74.4798 26.168V26.072C74.4798 25.944 74.5118 25.752 74.5758 25.496C74.6398 25.24 74.6718 25.08 74.6718 25.016C76.0158 23.992 77.4238 23.096 78.8958 22.328C80.3678 21.496 81.8078 21.08 83.2158 21.08C84.8798 21.08 86.3838 21.72 87.7278 23L88.2078 23.288C88.2718 23.288 88.3038 23.256 88.3038 23.192C88.4318 22.296 89.1678 21.624 90.5118 21.176C91.9198 20.728 93.1678 20.504 94.2558 20.504C95.4078 20.504 95.9838 20.664 95.9838 20.984C95.9838 21.112 95.7918 21.336 95.4078 21.656C95.2158 21.784 94.8958 22.072 94.4478 22.52C93.9998 22.968 93.5518 23.512 93.1038 24.152C93.0398 24.344 92.9438 24.536 92.8158 24.728C92.6878 24.92 92.5598 25.112 92.4318 25.304C92.3678 25.432 92.2718 25.592 92.1438 25.784C92.0798 25.912 91.9838 26.04 91.8558 26.168C90.7678 28.024 89.9038 29.592 89.2638 30.872C88.6238 32.152 87.8558 33.784 86.9598 35.768C86.8318 36.152 86.7678 36.376 86.7678 36.44C86.7678 36.952 87.0558 37.208 87.6318 37.208C88.0158 37.208 88.3998 37.112 88.7838 36.92L89.7438 36.536C91.2798 35.128 92.8798 33.944 94.5438 32.984C94.6078 32.984 94.6398 32.984 94.6398 32.984C94.7038 32.92 94.7678 32.888 94.8318 32.888C95.0238 32.888 95.1518 33.016 95.2158 33.272C95.2798 33.464 95.2158 33.624 95.0238 33.752C93.1678 34.776 91.4398 36.088 89.8398 37.688C89.7758 37.816 89.7118 37.944 89.6478 38.072C89.5838 38.2 89.4878 38.328 89.3598 38.456C89.1678 38.584 88.9758 38.808 88.7838 39.128C88.5918 39.448 88.4958 39.64 88.4958 39.704C88.4318 39.896 88.3358 39.96 88.2078 39.896C88.1438 39.832 87.9518 39.928 87.6318 40.184C87.5678 40.248 87.5038 40.376 87.4398 40.568C87.4398 40.76 87.4078 40.92 87.3438 41.048C87.2158 41.24 87.0878 41.4 86.9598 41.528C86.8318 41.592 86.7678 41.656 86.7678 41.72C86.7038 41.976 86.5758 42.136 86.3838 42.2C86.2558 42.2 86.1278 42.264 85.9998 42.392C85.9358 42.392 85.9038 42.424 85.9038 42.488C85.9038 43.064 85.8398 43.32 85.7118 43.256C85.5838 43.192 85.4558 43.256 85.3278 43.448C85.1998 43.704 85.0398 43.832 84.8478 43.832C84.4638 43.96 84.3038 44.056 84.3678 44.12C84.4958 44.184 84.5918 44.248 84.6558 44.312C84.7838 44.312 84.6878 44.408 84.3678 44.6C84.2398 44.664 84.1118 44.856 83.9838 45.176C83.8558 45.432 83.7278 45.624 83.5998 45.752C83.4078 45.88 83.2158 45.976 83.0238 46.04C82.8318 46.104 82.6718 46.232 82.5438 46.424C81.9678 47 81.4878 47.288 81.1038 47.288ZM94.1073 47.288C93.7233 47.288 93.5312 47.064 93.5312 46.616C93.5312 46.296 93.6273 45.912 93.8193 45.464C94.3313 44.376 94.9393 42.84 95.6433 40.856C96.3473 38.872 97.2113 37.176 98.2353 35.768L101.979 27.416C101.979 27.416 101.915 27.384 101.787 27.32C101.659 27.192 101.595 27.064 101.595 26.936C101.211 26.68 100.795 26.328 100.347 25.88C99.9633 25.368 99.9313 24.856 100.251 24.344C100.379 24.216 100.475 24.152 100.539 24.152C100.603 24.152 100.635 24.152 100.635 24.152V23.96C100.635 23.704 100.731 23.544 100.923 23.48C101.179 23.416 101.339 23.32 101.403 23.192C101.531 22.296 102.267 21.624 103.611 21.176C105.019 20.728 106.267 20.504 107.355 20.504C108.443 20.504 108.987 20.664 108.987 20.984C108.987 21.176 108.795 21.4 108.411 21.656C108.283 21.784 107.963 22.072 107.451 22.52C107.003 22.968 106.587 23.512 106.203 24.152L105.531 25.304L104.859 26.168C103.835 28.024 103.003 29.592 102.363 30.872C101.723 32.152 100.955 33.784 100.059 35.768C99.8673 36.152 99.7713 36.472 99.7713 36.728C99.7713 37.048 99.8993 37.208 100.155 37.208C100.283 37.208 100.411 37.176 100.539 37.112C100.731 36.984 100.923 36.888 101.115 36.824C101.627 36.504 102.043 36.216 102.363 35.96C102.747 35.64 103.163 35.32 103.611 35C103.803 34.808 103.963 34.808 104.091 35C104.219 35.128 104.219 35.32 104.091 35.576C103.835 36.088 103.643 36.408 103.515 36.536C103.451 36.6 103.355 36.664 103.227 36.728C103.099 36.792 102.811 37.08 102.363 37.592L101.979 38.36C101.851 38.488 101.691 38.744 101.499 39.128C101.371 39.448 101.307 39.64 101.307 39.704C101.307 39.832 101.243 39.896 101.115 39.896C100.987 39.832 100.795 39.928 100.539 40.184C100.475 40.248 100.443 40.376 100.443 40.568C100.507 40.76 100.475 40.92 100.347 41.048C100.283 41.24 100.187 41.4 100.059 41.528C99.9313 41.592 99.8672 41.656 99.8672 41.72C99.8033 41.976 99.6753 42.136 99.4833 42.2C99.3553 42.2 99.2273 42.264 99.0993 42.392C99.0353 42.392 99.0033 42.456 99.0033 42.584C99.0033 43.096 98.9393 43.32 98.8113 43.256C98.6833 43.192 98.5553 43.256 98.4273 43.448C98.2993 43.704 98.1393 43.832 97.9473 43.832C97.5633 43.96 97.4033 44.056 97.4673 44.12C97.5313 44.184 97.6273 44.248 97.7553 44.312C97.8833 44.312 97.7873 44.408 97.4673 44.6C97.2753 44.664 97.1153 44.856 96.9873 45.176C96.8593 45.432 96.7313 45.624 96.6033 45.752C96.4753 45.88 96.3153 45.976 96.1233 46.04C95.9313 46.104 95.7713 46.232 95.6433 46.424C95.0673 47 94.5553 47.288 94.1073 47.288ZM122.715 46.52C122.459 46.52 122.235 46.52 122.043 46.52C121.851 46.456 121.659 46.392 121.467 46.328C120.827 46.2 120.251 46.008 119.739 45.752C119.291 45.496 118.907 45.016 118.587 44.312C118.523 43.992 118.363 43.576 118.107 43.064C117.915 42.552 117.787 42.072 117.723 41.624C117.659 41.304 117.627 40.92 117.627 40.472C117.563 40.152 117.531 39.736 117.531 39.224C117.403 38.584 117.339 38.008 117.339 37.496C117.403 36.984 117.435 36.376 117.435 35.672C117.435 34.968 117.467 34.456 117.531 34.136C117.659 33.56 117.723 33.272 117.723 33.272C117.723 33.208 117.723 32.888 117.723 32.312C117.787 31.544 117.819 30.744 117.819 29.912C117.819 29.08 117.851 28.408 117.915 27.896C118.107 25.976 117.723 25.016 116.763 25.016C116.379 25.016 115.867 25.176 115.227 25.496C115.163 25.688 115.035 25.816 114.843 25.88C114.715 25.88 114.523 25.944 114.267 26.072L113.787 26.36C113.787 26.424 113.723 26.456 113.595 26.456C113.467 26.392 113.403 26.424 113.403 26.552C113.467 26.808 113.435 26.968 113.307 27.032C113.243 27.096 113.147 27.064 113.019 26.936L111.963 27.704C111.963 27.768 111.867 27.896 111.675 28.088L111.579 28.184C111.323 28.44 111.099 28.568 110.907 28.568L110.619 28.856C110.619 28.92 110.555 29.048 110.427 29.24C110.363 29.368 110.203 29.4 109.947 29.336L109.467 29.816C109.211 30.2 108.987 30.424 108.795 30.488C108.667 30.552 108.507 30.616 108.315 30.68L107.547 31.64L107.163 31.736C107.163 31.992 106.875 32.376 106.299 32.888C105.787 33.4 105.435 33.752 105.243 33.944C105.051 34.136 104.859 34.232 104.667 34.232C104.539 34.232 104.475 34.168 104.475 34.04C104.475 33.976 104.635 33.72 104.955 33.272C105.211 33.016 105.595 32.536 106.107 31.832C106.683 31.128 107.003 30.808 107.067 30.872C107.387 30.552 107.611 30.232 107.739 29.912C107.867 29.528 108.091 29.208 108.411 28.952C108.411 29.016 108.411 29.08 108.411 29.144C108.475 29.144 108.507 29.144 108.507 29.144C108.635 29.144 108.795 28.984 108.987 28.664C109.179 28.28 109.307 28.12 109.371 28.184L111.003 26.744C111.003 26.68 111.163 26.552 111.483 26.36C111.739 26.232 111.899 26.168 111.963 26.168C112.027 26.168 112.187 25.976 112.443 25.592L113.115 25.112C113.179 24.984 113.243 25.016 113.307 25.208C113.435 25.336 113.531 25.368 113.595 25.304L113.883 24.632C114.011 24.44 114.203 24.28 114.459 24.152C114.779 23.96 115.099 23.768 115.419 23.576C116.187 22.808 116.763 22.424 117.147 22.424H117.531C118.363 22.104 119.131 21.944 119.835 21.944C120.859 21.944 121.659 22.328 122.235 23.096C122.363 23.288 122.491 23.64 122.619 24.152C122.747 24.216 122.779 24.312 122.715 24.44C122.715 24.504 122.747 24.6 122.811 24.728C122.875 24.856 123.003 25.016 123.195 25.208C123.387 25.336 123.483 25.496 123.483 25.688V25.88C123.483 26.136 123.323 26.36 123.003 26.552C123.323 26.808 123.451 26.968 123.387 27.032C123.387 27.032 123.355 27.128 123.291 27.32L123.099 28.664C123.035 29.112 122.939 29.464 122.811 29.72C122.683 29.912 122.555 30.264 122.427 30.776C122.683 31.16 122.683 31.416 122.427 31.544H122.235L122.139 31.928C122.139 32.056 122.203 32.184 122.331 32.312L122.043 32.888C122.107 32.824 122.139 32.824 122.139 32.888C122.203 32.888 122.235 32.888 122.235 32.888C122.171 33.016 122.075 33.272 121.947 33.656C121.819 33.976 121.723 34.232 121.659 34.424C121.595 34.744 121.467 34.904 121.275 34.904C121.083 34.904 121.019 35.064 121.083 35.384C121.147 35.448 121.179 35.672 121.179 36.056C121.243 36.376 121.211 36.536 121.083 36.536L120.891 37.688V37.976C120.891 38.296 120.827 38.616 120.699 38.936C120.635 39.256 120.571 39.576 120.507 39.896C120.443 40.216 120.379 40.568 120.315 40.952C120.315 41.272 120.315 41.592 120.315 41.912C120.315 42.168 120.315 42.456 120.315 42.776C120.379 43.032 120.443 43.288 120.507 43.544C120.507 43.608 120.603 43.8 120.795 44.12C120.987 44.44 121.083 44.632 121.083 44.696L121.371 44.984C121.499 45.048 121.691 45.048 121.947 44.984C122.267 44.92 122.491 44.952 122.619 45.08C123.195 45.144 123.931 44.856 124.827 44.216C125.787 43.512 126.651 42.744 127.419 41.912C127.611 41.72 127.803 41.624 127.995 41.624C128.123 41.624 128.219 41.72 128.283 41.912C128.347 42.104 128.283 42.36 128.091 42.68C127.067 44.152 126.107 45.176 125.211 45.752C124.315 46.264 123.483 46.52 122.715 46.52ZM133.376 47.288C132.992 47.288 132.8 47.064 132.8 46.616C132.8 46.296 132.896 45.912 133.088 45.464C133.6 44.376 134.176 42.84 134.816 40.856C135.52 38.872 136.384 37.176 137.408 35.768L142.208 25.88C141.824 25.88 141.44 25.976 141.056 26.168C140.736 26.36 140.576 26.52 140.576 26.648C140.576 26.904 140.224 27.16 139.52 27.416C138.816 27.672 138.432 27.832 138.368 27.896C137.408 28.152 136.512 28.44 135.68 28.76C135.04 29.464 134.4 30.168 133.76 30.872C133.184 31.576 132.64 32.28 132.128 32.984C132.064 33.048 132 33.08 131.936 33.08C131.36 33.72 130.88 34.2 130.496 34.52C130.112 34.84 129.696 35.128 129.248 35.384C128.992 35.576 128.736 35.64 128.48 35.576C128.16 35.448 128.128 35.32 128.384 35.192C128.704 35.064 129.216 34.616 129.92 33.848C130.624 33.08 131.168 32.504 131.552 32.12C131.872 31.928 131.968 31.928 131.84 32.12C131.776 32.312 131.872 32.28 132.128 32.024L134.528 28.952L134.624 28.856C134.304 28.664 134.144 28.152 134.144 27.32C134.144 26.68 134.272 26.168 134.528 25.784C134.528 25.72 134.592 25.688 134.72 25.688L136.736 25.112C136.928 25.112 137.056 25.08 137.12 25.016C137.248 24.888 137.376 24.728 137.504 24.536C137.696 24.28 137.92 23.96 138.176 23.576L139.328 22.04L140.096 20.984C140.096 20.792 140.224 20.568 140.48 20.312C140.8 19.992 141.056 19.768 141.248 19.64C141.504 19.256 141.664 18.968 141.728 18.776C141.856 18.52 142.048 18.2 142.304 17.816C142.304 17.752 142.4 17.72 142.592 17.72C142.784 17.656 142.88 17.592 142.88 17.528C142.944 16.888 143.04 16.6 143.168 16.664C143.36 16.664 143.456 16.568 143.456 16.376C143.456 16.184 143.584 16.024 143.84 15.896L144.32 15.32C144.32 15.256 144.416 15.128 144.608 14.936V14.84C144.608 14.712 144.608 14.552 144.608 14.36C144.608 14.168 144.672 13.976 144.8 13.784C144.928 13.656 145.024 13.592 145.088 13.592C145.152 13.592 145.184 13.592 145.184 13.592C145.184 13.528 145.152 13.496 145.088 13.496C145.088 13.432 145.088 13.4 145.088 13.4C145.088 13.144 145.216 12.984 145.472 12.92C145.728 12.856 145.856 12.76 145.856 12.632C145.984 11.736 146.752 11.064 148.16 10.616C149.568 10.168 150.816 9.944 151.904 9.944C152.992 9.944 153.536 10.104 153.536 10.424C153.536 10.552 153.344 10.776 152.96 11.096C152.768 11.16 152.448 11.448 152 11.96C151.552 12.408 151.136 12.952 150.752 13.592L149.984 14.744C149.92 14.872 149.824 15.032 149.696 15.224C149.632 15.352 149.536 15.48 149.408 15.608C148.96 16.376 148.352 17.464 147.584 18.872C146.88 20.216 146.112 21.72 145.28 23.384L147.776 23.096C147.968 23.096 148.032 23.128 147.968 23.192C147.968 23.256 148.064 23.256 148.256 23.192C148.576 23.192 148.8 23.16 148.928 23.096C149.056 22.968 149.28 22.872 149.6 22.808C150.112 22.744 150.688 22.712 151.328 22.712C152.032 22.648 152.576 22.616 152.96 22.616C153.216 22.616 153.536 22.616 153.92 22.616C154.304 22.616 154.592 22.648 154.784 22.712C154.912 22.712 154.944 22.776 154.88 22.904C154.88 22.968 154.912 23 154.976 23C155.104 23 155.2 22.968 155.264 22.904C155.392 22.84 155.52 22.808 155.648 22.808C155.712 22.744 155.808 22.744 155.936 22.808C156.128 22.808 156.256 22.808 156.32 22.808L157.28 23.096C157.664 23.16 157.856 23.384 157.856 23.768C157.92 24.152 157.76 24.28 157.376 24.152C157.12 24.024 156.896 23.96 156.704 23.96H154.304C153.856 23.96 153.44 23.96 153.056 23.96C152.672 23.96 152.288 23.992 151.904 24.056C151.776 24.12 151.712 24.056 151.712 23.864C151.776 23.672 151.744 23.576 151.616 23.576C151.552 23.576 151.456 23.672 151.328 23.864C151.2 23.992 151.104 24.056 151.04 24.056L150.56 24.344C149.536 24.6 148.448 24.888 147.296 25.208C146.144 25.464 145.024 25.752 143.936 26.072C142.976 28.056 142.048 29.944 141.152 31.736C140.32 33.464 139.68 34.808 139.232 35.768C139.104 36.152 139.04 36.376 139.04 36.44C139.04 36.952 139.328 37.208 139.904 37.208C140.288 37.208 140.672 37.112 141.056 36.92L142.016 36.536C143.552 35.128 145.152 33.944 146.816 32.984C146.88 32.984 146.912 32.984 146.912 32.984C146.976 32.92 147.04 32.888 147.104 32.888C147.296 32.888 147.424 33.016 147.488 33.272C147.552 33.464 147.488 33.624 147.296 33.752C145.44 34.776 143.712 36.088 142.112 37.688C142.048 37.816 141.984 37.944 141.92 38.072C141.856 38.2 141.76 38.328 141.632 38.456C141.504 38.584 141.312 38.808 141.056 39.128C140.864 39.448 140.768 39.64 140.768 39.704C140.704 39.896 140.608 39.96 140.48 39.896C140.416 39.832 140.224 39.928 139.904 40.184C139.84 40.248 139.776 40.376 139.712 40.568C139.712 40.76 139.68 40.92 139.616 41.048C139.488 41.24 139.36 41.4 139.232 41.528C139.104 41.592 139.04 41.656 139.04 41.72C138.976 41.976 138.848 42.136 138.656 42.2C138.528 42.2 138.4 42.264 138.272 42.392C138.208 42.392 138.176 42.424 138.176 42.488C138.176 43.064 138.112 43.32 137.984 43.256C137.856 43.192 137.76 43.256 137.696 43.448C137.44 43.704 137.248 43.832 137.12 43.832C136.736 43.96 136.576 44.056 136.64 44.12C136.768 44.184 136.864 44.248 136.928 44.312C137.056 44.312 136.96 44.408 136.64 44.6C136.512 44.664 136.384 44.856 136.256 45.176C136.128 45.432 136 45.624 135.872 45.752C135.68 45.88 135.488 45.976 135.296 46.04C135.104 46.104 134.944 46.232 134.816 46.424C134.24 47 133.76 47.288 133.376 47.288ZM138.848 24.728C139.104 24.664 139.328 24.6 139.52 24.536C139.776 24.472 140.032 24.376 140.288 24.248L143.168 23.768C143.936 22.232 144.608 20.856 145.184 19.64C145.76 18.36 146.176 17.432 146.432 16.856C146.432 16.856 146.368 16.824 146.24 16.76C146.176 16.632 146.144 16.504 146.144 16.376C146.016 16.312 145.856 16.216 145.664 16.088C145.536 15.96 145.408 15.864 145.28 15.8L144.416 16.664L143.36 18.104C143.36 18.168 143.264 18.232 143.072 18.296C142.944 18.296 142.88 18.328 142.88 18.392C142.88 18.584 142.784 18.776 142.592 18.968C142.464 19.16 142.336 19.224 142.208 19.16L141.824 20.12C141.824 20.312 141.728 20.472 141.536 20.6L140.864 21.464C140.864 21.528 140.832 21.592 140.768 21.656C140.768 21.656 140.768 21.72 140.768 21.848C140.704 21.976 140.608 22.136 140.48 22.328C140.352 22.52 140.192 22.712 140 22.904C139.936 22.904 139.904 22.936 139.904 23C139.904 23 139.872 23 139.808 23L139.52 23.576C139.264 23.704 139.104 23.768 139.04 23.768L138.944 23.96C138.944 24.344 138.912 24.6 138.848 24.728ZM157.142 47.864C155.734 47.864 154.486 47.48 153.398 46.712C152.374 45.88 151.862 44.472 151.862 42.488C151.862 41.784 151.99 40.792 152.246 39.512C152.502 38.232 152.918 36.888 153.494 35.48C153.814 34.712 154.166 33.976 154.55 33.272C154.998 32.568 155.414 31.896 155.798 31.256C155.862 31.192 156.054 31.256 156.374 31.448C156.758 31.64 156.982 31.704 157.046 31.64C157.11 31.512 157.014 31.384 156.758 31.256C156.566 31.064 156.502 30.936 156.566 30.872C156.694 30.744 156.79 30.68 156.854 30.68C156.982 30.616 157.078 30.52 157.142 30.392C157.206 30.264 157.238 30.136 157.238 30.008C157.238 29.816 157.142 29.656 156.95 29.528C156.822 29.4 156.886 29.208 157.142 28.952C157.462 28.504 157.814 28.088 158.198 27.704C158.646 27.256 159.03 26.872 159.35 26.552C159.478 26.424 159.638 26.232 159.83 25.976C160.022 25.656 160.15 25.464 160.214 25.4L160.406 25.208C160.47 25.144 160.534 25.08 160.598 25.016C160.598 24.952 160.598 24.92 160.598 24.92C160.662 24.92 160.694 24.888 160.694 24.824C160.694 24.632 160.502 24.44 160.118 24.248C159.734 24.056 159.542 23.928 159.542 23.864C159.542 23.8 159.51 23.736 159.446 23.672C159.382 23.608 159.318 23.512 159.254 23.384C159.318 23.384 159.382 23.32 159.446 23.192C159.574 23 159.67 22.904 159.734 22.904C159.798 22.904 159.926 22.968 160.118 23.096C160.31 23.16 160.438 23.192 160.502 23.192C160.566 23.192 160.598 23.16 160.598 23.096C160.662 23.032 160.726 23 160.79 23C160.918 23 161.206 23.096 161.654 23.288C162.102 23.416 162.358 23.48 162.422 23.48C162.486 23.48 162.678 23.32 162.998 23C163.318 22.68 163.51 22.488 163.574 22.424C163.702 22.296 163.798 22.168 163.862 22.04C163.926 21.848 164.086 21.624 164.342 21.368H164.438C164.502 21.304 164.534 21.24 164.534 21.176C164.534 21.112 164.534 21.08 164.534 21.08C164.662 20.952 164.758 20.856 164.822 20.792C164.95 20.664 165.046 20.568 165.11 20.504C165.174 20.44 165.206 20.408 165.206 20.408C165.27 20.408 165.302 20.408 165.302 20.408C165.366 20.28 165.43 20.184 165.494 20.12C165.622 20.056 165.718 19.992 165.782 19.928L165.974 19.544C166.102 19.416 166.55 19.128 167.318 18.68C168.086 18.232 168.662 18.008 169.046 18.008H169.526C169.526 18.008 169.526 18.04 169.526 18.104C169.526 18.104 169.558 18.104 169.622 18.104C169.686 18.104 169.75 18.104 169.814 18.104C169.878 18.04 169.942 18.008 170.006 18.008C170.006 18.008 170.102 18.104 170.294 18.296C170.358 18.36 170.422 18.392 170.486 18.392C170.55 18.328 170.614 18.296 170.678 18.296C170.742 18.36 170.774 18.424 170.774 18.488C170.774 18.552 170.806 18.584 170.87 18.584C170.998 18.584 171.03 18.584 170.966 18.584C170.966 18.52 170.998 18.488 171.062 18.488C171.126 18.488 171.158 18.552 171.158 18.68C171.158 18.808 171.19 18.936 171.254 19.064C171.19 19.256 171.126 19.48 171.062 19.736C171.062 19.928 171.03 20.088 170.966 20.216C170.39 20.984 169.942 21.368 169.622 21.368C169.622 21.432 169.526 21.56 169.334 21.752C169.142 21.752 168.918 21.816 168.662 21.944C168.406 22.072 168.15 22.2 167.894 22.328V22.616C167.894 22.872 167.798 23 167.606 23C167.478 22.936 167.35 23.032 167.222 23.288V23.384C167.35 23.576 167.574 23.672 167.894 23.672L168.566 23.768C168.694 23.768 168.758 23.736 168.758 23.672C168.822 23.608 168.886 23.576 168.95 23.576C169.014 23.576 169.046 23.608 169.046 23.672C169.046 23.672 169.078 23.672 169.142 23.672C169.27 23.672 169.366 23.64 169.43 23.576C169.494 23.512 169.558 23.48 169.622 23.48L170.486 23.576C170.294 23.256 170.198 23 170.198 22.808C170.198 22.488 170.486 22.296 171.062 22.232C171.958 22.232 172.726 22.552 173.366 23.192C173.494 23.128 173.654 23.128 173.846 23.192C174.038 23.256 174.23 23.256 174.422 23.192L174.902 22.904L174.998 23C175.254 22.872 175.414 22.808 175.478 22.808C175.606 22.808 175.638 22.84 175.574 22.904C175.574 22.904 175.606 22.904 175.67 22.904C175.67 22.904 175.734 22.84 175.862 22.712C175.926 22.712 175.99 22.744 176.054 22.808C176.182 22.808 176.278 22.776 176.342 22.712L176.63 22.424H177.782L177.878 22.328C178.006 22.264 178.166 22.2 178.358 22.136C178.614 22.008 178.838 21.944 179.03 21.944C179.03 21.88 179.094 21.848 179.222 21.848C179.35 21.784 179.446 21.752 179.51 21.752H179.702C180.022 21.752 180.182 21.848 180.182 22.04C180.182 22.232 180.086 22.392 179.894 22.52C179.83 22.584 179.734 22.616 179.606 22.616C179.478 22.552 179.35 22.552 179.222 22.616C178.966 22.872 178.774 23 178.646 23C178.582 23 178.55 23 178.55 23C178.55 22.936 178.518 22.904 178.454 22.904C178.39 22.904 178.262 23 178.07 23.192L177.398 23.288H177.302C177.174 23.288 177.11 23.352 177.11 23.48C176.854 23.48 176.598 23.512 176.342 23.576C176.086 23.576 175.83 23.608 175.574 23.672L175.478 23.768C175.414 23.768 175.35 23.8 175.286 23.864C175.222 23.864 175.126 23.864 174.998 23.864C174.87 23.928 174.518 23.96 173.942 23.96C174.326 24.472 174.582 24.952 174.71 25.4C174.838 25.72 174.934 26.232 174.998 26.936C175.126 27.576 175.158 28.056 175.094 28.376C175.094 28.568 175.03 28.632 174.902 28.568C174.774 28.44 174.71 28.44 174.71 28.568C174.71 28.76 174.774 28.888 174.902 28.952C175.094 28.952 175.19 29.112 175.19 29.432C175.19 29.624 175.158 29.88 175.094 30.2C175.03 30.456 174.966 30.744 174.902 31.064C174.838 31.448 174.742 31.864 174.614 32.312C174.55 32.696 174.39 33.08 174.134 33.464L173.846 33.944V34.52C173.846 35.032 173.686 35.384 173.366 35.576C173.11 35.768 172.918 35.992 172.79 36.248C172.662 36.632 172.566 36.888 172.502 37.016C172.502 37.144 172.374 37.4 172.118 37.784C171.286 39.064 170.294 40.28 169.142 41.432C167.99 42.584 166.87 43.64 165.782 44.6C164.822 45.432 163.51 46.2 161.846 46.904C160.246 47.544 158.678 47.864 157.142 47.864ZM158.102 46.136C158.294 46.136 158.678 46.104 159.254 46.04C159.83 45.912 160.438 45.624 161.078 45.176C161.206 45.112 161.334 45.144 161.462 45.272C161.59 45.4 161.718 45.432 161.846 45.368C162.166 45.24 162.294 45.144 162.23 45.08C162.166 45.016 162.262 44.952 162.518 44.888H162.614C162.998 44.888 163.158 44.856 163.094 44.792C163.094 44.664 163.126 44.504 163.19 44.312C163.19 44.12 163.286 43.96 163.478 43.832C163.67 43.704 163.83 43.608 163.958 43.544C164.662 42.968 165.526 42.008 166.55 40.664C167.574 39.256 168.598 37.848 169.622 36.44C169.686 36.312 169.782 36.28 169.91 36.344C170.038 36.408 170.134 36.408 170.198 36.344C170.262 36.28 170.294 36.088 170.294 35.768C170.294 35.576 170.39 35.288 170.582 34.904C170.774 34.456 170.966 34.104 171.158 33.848C171.222 33.656 171.35 33.304 171.542 32.792C171.734 32.216 171.894 31.704 172.022 31.256C172.214 30.744 172.246 30.488 172.118 30.488C171.99 30.424 171.926 30.36 171.926 30.296C171.926 30.168 172.118 30.04 172.502 29.912C172.886 29.784 172.854 29.688 172.406 29.624C172.278 29.56 172.31 29.432 172.502 29.24C172.694 29.048 172.598 28.92 172.214 28.856C171.894 28.792 171.766 28.696 171.83 28.568C171.958 28.44 172.054 28.344 172.118 28.28C172.31 28.088 172.406 27.896 172.406 27.704C172.406 27.128 172.246 26.552 171.926 25.976C171.67 25.4 171.382 24.888 171.062 24.44C170.678 24.696 170.486 24.824 170.486 24.824C170.422 24.824 170.39 24.824 170.39 24.824C170.39 24.76 170.326 24.728 170.198 24.728C170.134 24.728 170.102 24.728 170.102 24.728C170.102 24.664 170.07 24.632 170.006 24.632C169.942 24.632 169.878 24.664 169.814 24.728C169.75 24.792 169.718 24.824 169.718 24.824C169.654 24.888 169.526 24.92 169.334 24.92C169.206 24.92 169.11 24.92 169.046 24.92C168.982 24.92 168.918 24.888 168.854 24.824C168.854 24.76 168.822 24.728 168.758 24.728C168.694 24.728 168.598 24.792 168.47 24.92C168.406 25.048 168.31 25.112 168.182 25.112C168.118 25.112 168.086 25.08 168.086 25.016C168.086 24.952 168.022 24.92 167.894 24.92C167.83 24.92 167.766 24.952 167.702 25.016C167.702 25.08 167.67 25.112 167.606 25.112C167.542 25.112 167.414 25.016 167.222 24.824H167.126C167.126 25.208 167.03 25.4 166.838 25.4C166.774 25.4 166.678 25.336 166.55 25.208C165.846 25.656 164.662 26.712 162.998 28.376C161.334 29.976 159.862 31.832 158.582 33.944C158.326 34.456 158.006 35.064 157.622 35.768C157.302 36.472 157.014 37.272 156.758 38.168C156.694 38.552 156.502 38.84 156.182 39.032C155.926 39.224 155.734 39.448 155.606 39.704C155.542 39.96 155.574 40.12 155.702 40.184C155.83 40.248 155.926 40.344 155.99 40.472C155.99 40.728 155.926 41.08 155.798 41.528C155.734 41.976 155.702 42.392 155.702 42.776C155.702 43.992 155.926 44.856 156.374 45.368C156.886 45.88 157.462 46.136 158.102 46.136ZM183.767 47.864C182.359 47.864 181.111 47.48 180.023 46.712C178.999 45.88 178.487 44.472 178.487 42.488C178.487 41.784 178.615 40.792 178.871 39.512C179.127 38.232 179.543 36.888 180.119 35.48C180.439 34.712 180.791 33.976 181.175 33.272C181.623 32.568 182.039 31.896 182.423 31.256C182.487 31.192 182.679 31.256 182.999 31.448C183.383 31.64 183.607 31.704 183.671 31.64C183.735 31.512 183.639 31.384 183.383 31.256C183.191 31.064 183.127 30.936 183.191 30.872C183.319 30.744 183.415 30.68 183.479 30.68C183.607 30.616 183.703 30.52 183.767 30.392C183.831 30.264 183.863 30.136 183.863 30.008C183.863 29.816 183.767 29.656 183.575 29.528C183.447 29.4 183.511 29.208 183.767 28.952C184.087 28.504 184.439 28.088 184.823 27.704C185.271 27.256 185.655 26.872 185.975 26.552C186.103 26.424 186.263 26.232 186.455 25.976C186.647 25.656 186.775 25.464 186.839 25.4L187.031 25.208C187.095 25.144 187.159 25.08 187.223 25.016C187.223 24.952 187.223 24.92 187.223 24.92C187.287 24.92 187.319 24.888 187.319 24.824C187.319 24.632 187.127 24.44 186.743 24.248C186.359 24.056 186.167 23.928 186.167 23.864C186.167 23.8 186.135 23.736 186.071 23.672C186.007 23.608 185.943 23.512 185.879 23.384C185.943 23.384 186.007 23.32 186.071 23.192C186.199 23 186.295 22.904 186.359 22.904C186.423 22.904 186.551 22.968 186.743 23.096C186.935 23.16 187.063 23.192 187.127 23.192C187.191 23.192 187.223 23.16 187.223 23.096C187.287 23.032 187.351 23 187.415 23C187.543 23 187.831 23.096 188.279 23.288C188.727 23.416 188.983 23.48 189.047 23.48C189.111 23.48 189.303 23.32 189.623 23C189.943 22.68 190.135 22.488 190.199 22.424C190.327 22.296 190.423 22.168 190.487 22.04C190.551 21.848 190.711 21.624 190.967 21.368H191.063C191.127 21.304 191.159 21.24 191.159 21.176C191.159 21.112 191.159 21.08 191.159 21.08C191.287 20.952 191.383 20.856 191.447 20.792C191.575 20.664 191.671 20.568 191.735 20.504C191.799 20.44 191.831 20.408 191.831 20.408C191.895 20.408 191.927 20.408 191.927 20.408C191.991 20.28 192.055 20.184 192.119 20.12C192.247 20.056 192.343 19.992 192.407 19.928L192.599 19.544C192.727 19.416 193.175 19.128 193.943 18.68C194.711 18.232 195.287 18.008 195.671 18.008H196.151C196.151 18.008 196.151 18.04 196.151 18.104C196.151 18.104 196.183 18.104 196.247 18.104C196.311 18.104 196.375 18.104 196.439 18.104C196.503 18.04 196.567 18.008 196.631 18.008C196.631 18.008 196.727 18.104 196.919 18.296C196.983 18.36 197.047 18.392 197.111 18.392C197.175 18.328 197.239 18.296 197.303 18.296C197.367 18.36 197.399 18.424 197.399 18.488C197.399 18.552 197.431 18.584 197.495 18.584C197.623 18.584 197.655 18.584 197.591 18.584C197.591 18.52 197.623 18.488 197.687 18.488C197.751 18.488 197.783 18.552 197.783 18.68C197.783 18.808 197.815 18.936 197.879 19.064C197.815 19.256 197.751 19.48 197.687 19.736C197.687 19.928 197.655 20.088 197.591 20.216C197.015 20.984 196.567 21.368 196.247 21.368C196.247 21.432 196.151 21.56 195.959 21.752C195.767 21.752 195.543 21.816 195.287 21.944C195.031 22.072 194.775 22.2 194.519 22.328V22.616C194.519 22.872 194.423 23 194.231 23C194.103 22.936 193.975 23.032 193.847 23.288V23.384C193.975 23.576 194.199 23.672 194.519 23.672L195.191 23.768C195.319 23.768 195.383 23.736 195.383 23.672C195.447 23.608 195.511 23.576 195.575 23.576C195.639 23.576 195.671 23.608 195.671 23.672C195.671 23.672 195.703 23.672 195.767 23.672C195.895 23.672 195.991 23.64 196.055 23.576C196.119 23.512 196.183 23.48 196.247 23.48L197.111 23.576C196.919 23.256 196.823 23 196.823 22.808C196.823 22.488 197.111 22.296 197.687 22.232C198.583 22.232 199.351 22.552 199.991 23.192C200.119 23.128 200.279 23.128 200.471 23.192C200.663 23.256 200.855 23.256 201.047 23.192L201.527 22.904L201.623 23C201.879 22.872 202.039 22.808 202.103 22.808C202.231 22.808 202.263 22.84 202.199 22.904C202.199 22.904 202.231 22.904 202.295 22.904C202.295 22.904 202.359 22.84 202.487 22.712C202.551 22.712 202.615 22.744 202.679 22.808C202.807 22.808 202.903 22.776 202.967 22.712L203.255 22.424H204.407L204.503 22.328C204.631 22.264 204.791 22.2 204.983 22.136C205.239 22.008 205.463 21.944 205.655 21.944C205.655 21.88 205.719 21.848 205.847 21.848C205.975 21.784 206.071 21.752 206.135 21.752H206.327C206.647 21.752 206.807 21.848 206.807 22.04C206.807 22.232 206.711 22.392 206.519 22.52C206.455 22.584 206.359 22.616 206.231 22.616C206.103 22.552 205.975 22.552 205.847 22.616C205.591 22.872 205.399 23 205.271 23C205.207 23 205.175 23 205.175 23C205.175 22.936 205.143 22.904 205.079 22.904C205.015 22.904 204.887 23 204.695 23.192L204.023 23.288H203.927C203.799 23.288 203.735 23.352 203.735 23.48C203.479 23.48 203.223 23.512 202.967 23.576C202.711 23.576 202.455 23.608 202.199 23.672L202.103 23.768C202.039 23.768 201.975 23.8 201.911 23.864C201.847 23.864 201.751 23.864 201.623 23.864C201.495 23.928 201.143 23.96 200.567 23.96C200.951 24.472 201.207 24.952 201.335 25.4C201.463 25.72 201.559 26.232 201.623 26.936C201.751 27.576 201.783 28.056 201.719 28.376C201.719 28.568 201.655 28.632 201.527 28.568C201.399 28.44 201.335 28.44 201.335 28.568C201.335 28.76 201.399 28.888 201.527 28.952C201.719 28.952 201.815 29.112 201.815 29.432C201.815 29.624 201.783 29.88 201.719 30.2C201.655 30.456 201.591 30.744 201.527 31.064C201.463 31.448 201.367 31.864 201.239 32.312C201.175 32.696 201.015 33.08 200.759 33.464L200.471 33.944V34.52C200.471 35.032 200.311 35.384 199.991 35.576C199.735 35.768 199.543 35.992 199.415 36.248C199.287 36.632 199.191 36.888 199.127 37.016C199.127 37.144 198.999 37.4 198.743 37.784C197.911 39.064 196.919 40.28 195.767 41.432C194.615 42.584 193.495 43.64 192.407 44.6C191.447 45.432 190.135 46.2 188.471 46.904C186.871 47.544 185.303 47.864 183.767 47.864ZM184.727 46.136C184.919 46.136 185.303 46.104 185.879 46.04C186.455 45.912 187.063 45.624 187.703 45.176C187.831 45.112 187.959 45.144 188.087 45.272C188.215 45.4 188.343 45.432 188.471 45.368C188.791 45.24 188.919 45.144 188.855 45.08C188.791 45.016 188.887 44.952 189.143 44.888H189.239C189.623 44.888 189.783 44.856 189.719 44.792C189.719 44.664 189.751 44.504 189.815 44.312C189.815 44.12 189.911 43.96 190.103 43.832C190.295 43.704 190.455 43.608 190.583 43.544C191.287 42.968 192.151 42.008 193.175 40.664C194.199 39.256 195.223 37.848 196.247 36.44C196.311 36.312 196.407 36.28 196.535 36.344C196.663 36.408 196.759 36.408 196.823 36.344C196.887 36.28 196.919 36.088 196.919 35.768C196.919 35.576 197.015 35.288 197.207 34.904C197.399 34.456 197.591 34.104 197.783 33.848C197.847 33.656 197.975 33.304 198.167 32.792C198.359 32.216 198.519 31.704 198.647 31.256C198.839 30.744 198.871 30.488 198.743 30.488C198.615 30.424 198.551 30.36 198.551 30.296C198.551 30.168 198.743 30.04 199.127 29.912C199.511 29.784 199.479 29.688 199.031 29.624C198.903 29.56 198.935 29.432 199.127 29.24C199.319 29.048 199.223 28.92 198.839 28.856C198.519 28.792 198.391 28.696 198.455 28.568C198.583 28.44 198.679 28.344 198.743 28.28C198.935 28.088 199.031 27.896 199.031 27.704C199.031 27.128 198.871 26.552 198.551 25.976C198.295 25.4 198.007 24.888 197.687 24.44C197.303 24.696 197.111 24.824 197.111 24.824C197.047 24.824 197.015 24.824 197.015 24.824C197.015 24.76 196.951 24.728 196.823 24.728C196.759 24.728 196.727 24.728 196.727 24.728C196.727 24.664 196.695 24.632 196.631 24.632C196.567 24.632 196.503 24.664 196.439 24.728C196.375 24.792 196.343 24.824 196.343 24.824C196.279 24.888 196.151 24.92 195.959 24.92C195.831 24.92 195.735 24.92 195.671 24.92C195.607 24.92 195.543 24.888 195.479 24.824C195.479 24.76 195.447 24.728 195.383 24.728C195.319 24.728 195.223 24.792 195.095 24.92C195.031 25.048 194.935 25.112 194.807 25.112C194.743 25.112 194.711 25.08 194.711 25.016C194.711 24.952 194.647 24.92 194.519 24.92C194.455 24.92 194.391 24.952 194.327 25.016C194.327 25.08 194.295 25.112 194.231 25.112C194.167 25.112 194.039 25.016 193.847 24.824H193.751C193.751 25.208 193.655 25.4 193.463 25.4C193.399 25.4 193.303 25.336 193.175 25.208C192.471 25.656 191.287 26.712 189.623 28.376C187.959 29.976 186.487 31.832 185.207 33.944C184.951 34.456 184.631 35.064 184.247 35.768C183.927 36.472 183.639 37.272 183.383 38.168C183.319 38.552 183.127 38.84 182.807 39.032C182.551 39.224 182.359 39.448 182.231 39.704C182.167 39.96 182.199 40.12 182.327 40.184C182.455 40.248 182.551 40.344 182.615 40.472C182.615 40.728 182.551 41.08 182.423 41.528C182.359 41.976 182.327 42.392 182.327 42.776C182.327 43.992 182.551 44.856 182.999 45.368C183.511 45.88 184.087 46.136 184.727 46.136ZM210.392 47.864C208.984 47.864 207.736 47.48 206.648 46.712C205.624 45.88 205.112 44.472 205.112 42.488C205.112 41.784 205.24 40.792 205.496 39.512C205.752 38.232 206.168 36.888 206.744 35.48C207.064 34.712 207.416 33.976 207.8 33.272C208.248 32.568 208.664 31.896 209.048 31.256C209.112 31.192 209.304 31.256 209.624 31.448C210.008 31.64 210.232 31.704 210.296 31.64C210.36 31.512 210.264 31.384 210.008 31.256C209.816 31.064 209.752 30.936 209.816 30.872C209.944 30.744 210.04 30.68 210.104 30.68C210.232 30.616 210.328 30.52 210.392 30.392C210.456 30.264 210.488 30.136 210.488 30.008C210.488 29.816 210.392 29.656 210.2 29.528C210.072 29.4 210.136 29.208 210.392 28.952C210.712 28.504 211.064 28.088 211.448 27.704C211.896 27.256 212.28 26.872 212.6 26.552C212.728 26.424 212.888 26.232 213.08 25.976C213.272 25.656 213.4 25.464 213.464 25.4L213.656 25.208C213.72 25.144 213.784 25.08 213.848 25.016C213.848 24.952 213.848 24.92 213.848 24.92C213.912 24.92 213.944 24.888 213.944 24.824C213.944 24.632 213.752 24.44 213.368 24.248C212.984 24.056 212.792 23.928 212.792 23.864C212.792 23.8 212.76 23.736 212.696 23.672C212.632 23.608 212.568 23.512 212.504 23.384C212.568 23.384 212.632 23.32 212.696 23.192C212.824 23 212.92 22.904 212.984 22.904C213.048 22.904 213.176 22.968 213.368 23.096C213.56 23.16 213.688 23.192 213.752 23.192C213.816 23.192 213.848 23.16 213.848 23.096C213.912 23.032 213.976 23 214.04 23C214.168 23 214.456 23.096 214.904 23.288C215.352 23.416 215.608 23.48 215.672 23.48C215.736 23.48 215.928 23.32 216.248 23C216.568 22.68 216.76 22.488 216.824 22.424C216.952 22.296 217.048 22.168 217.112 22.04C217.176 21.848 217.336 21.624 217.592 21.368H217.688C217.752 21.304 217.784 21.24 217.784 21.176C217.784 21.112 217.784 21.08 217.784 21.08C217.912 20.952 218.008 20.856 218.072 20.792C218.2 20.664 218.296 20.568 218.36 20.504C218.424 20.44 218.456 20.408 218.456 20.408C218.52 20.408 218.552 20.408 218.552 20.408C218.616 20.28 218.68 20.184 218.744 20.12C218.872 20.056 218.968 19.992 219.032 19.928L219.224 19.544C219.352 19.416 219.8 19.128 220.568 18.68C221.336 18.232 221.912 18.008 222.296 18.008H222.776C222.776 18.008 222.776 18.04 222.776 18.104C222.776 18.104 222.808 18.104 222.872 18.104C222.936 18.104 223 18.104 223.064 18.104C223.128 18.04 223.192 18.008 223.256 18.008C223.256 18.008 223.352 18.104 223.544 18.296C223.608 18.36 223.672 18.392 223.736 18.392C223.8 18.328 223.864 18.296 223.928 18.296C223.992 18.36 224.024 18.424 224.024 18.488C224.024 18.552 224.056 18.584 224.12 18.584C224.248 18.584 224.28 18.584 224.216 18.584C224.216 18.52 224.248 18.488 224.312 18.488C224.376 18.488 224.408 18.552 224.408 18.68C224.408 18.808 224.44 18.936 224.504 19.064C224.44 19.256 224.376 19.48 224.312 19.736C224.312 19.928 224.28 20.088 224.216 20.216C223.64 20.984 223.192 21.368 222.872 21.368C222.872 21.432 222.776 21.56 222.584 21.752C222.392 21.752 222.168 21.816 221.912 21.944C221.656 22.072 221.4 22.2 221.144 22.328V22.616C221.144 22.872 221.048 23 220.856 23C220.728 22.936 220.6 23.032 220.472 23.288V23.384C220.6 23.576 220.824 23.672 221.144 23.672L221.816 23.768C221.944 23.768 222.008 23.736 222.008 23.672C222.072 23.608 222.136 23.576 222.2 23.576C222.264 23.576 222.296 23.608 222.296 23.672C222.296 23.672 222.328 23.672 222.392 23.672C222.52 23.672 222.616 23.64 222.68 23.576C222.744 23.512 222.808 23.48 222.872 23.48L223.736 23.576C223.544 23.256 223.448 23 223.448 22.808C223.448 22.488 223.736 22.296 224.312 22.232C225.208 22.232 225.976 22.552 226.616 23.192C226.744 23.128 226.904 23.128 227.096 23.192C227.288 23.256 227.48 23.256 227.672 23.192L228.152 22.904L228.248 23C228.504 22.872 228.664 22.808 228.728 22.808C228.856 22.808 228.888 22.84 228.824 22.904C228.824 22.904 228.856 22.904 228.92 22.904C228.92 22.904 228.984 22.84 229.112 22.712C229.176 22.712 229.24 22.744 229.304 22.808C229.432 22.808 229.528 22.776 229.592 22.712L229.88 22.424H231.032L231.128 22.328C231.256 22.264 231.416 22.2 231.608 22.136C231.864 22.008 232.088 21.944 232.28 21.944C232.28 21.88 232.344 21.848 232.472 21.848C232.6 21.784 232.696 21.752 232.76 21.752H232.952C233.272 21.752 233.432 21.848 233.432 22.04C233.432 22.232 233.336 22.392 233.144 22.52C233.08 22.584 232.984 22.616 232.856 22.616C232.728 22.552 232.6 22.552 232.472 22.616C232.216 22.872 232.024 23 231.896 23C231.832 23 231.8 23 231.8 23C231.8 22.936 231.768 22.904 231.704 22.904C231.64 22.904 231.512 23 231.32 23.192L230.648 23.288H230.552C230.424 23.288 230.36 23.352 230.36 23.48C230.104 23.48 229.848 23.512 229.592 23.576C229.336 23.576 229.08 23.608 228.824 23.672L228.728 23.768C228.664 23.768 228.6 23.8 228.536 23.864C228.472 23.864 228.376 23.864 228.248 23.864C228.12 23.928 227.768 23.96 227.192 23.96C227.576 24.472 227.832 24.952 227.96 25.4C228.088 25.72 228.184 26.232 228.248 26.936C228.376 27.576 228.408 28.056 228.344 28.376C228.344 28.568 228.28 28.632 228.152 28.568C228.024 28.44 227.96 28.44 227.96 28.568C227.96 28.76 228.024 28.888 228.152 28.952C228.344 28.952 228.44 29.112 228.44 29.432C228.44 29.624 228.408 29.88 228.344 30.2C228.28 30.456 228.216 30.744 228.152 31.064C228.088 31.448 227.992 31.864 227.864 32.312C227.8 32.696 227.64 33.08 227.384 33.464L227.096 33.944V34.52C227.096 35.032 226.936 35.384 226.616 35.576C226.36 35.768 226.168 35.992 226.04 36.248C225.912 36.632 225.816 36.888 225.752 37.016C225.752 37.144 225.624 37.4 225.368 37.784C224.536 39.064 223.544 40.28 222.392 41.432C221.24 42.584 220.12 43.64 219.032 44.6C218.072 45.432 216.76 46.2 215.096 46.904C213.496 47.544 211.928 47.864 210.392 47.864ZM211.352 46.136C211.544 46.136 211.928 46.104 212.504 46.04C213.08 45.912 213.688 45.624 214.328 45.176C214.456 45.112 214.584 45.144 214.712 45.272C214.84 45.4 214.968 45.432 215.096 45.368C215.416 45.24 215.544 45.144 215.48 45.08C215.416 45.016 215.512 44.952 215.768 44.888H215.864C216.248 44.888 216.408 44.856 216.344 44.792C216.344 44.664 216.376 44.504 216.44 44.312C216.44 44.12 216.536 43.96 216.728 43.832C216.92 43.704 217.08 43.608 217.208 43.544C217.912 42.968 218.776 42.008 219.8 40.664C220.824 39.256 221.848 37.848 222.872 36.44C222.936 36.312 223.032 36.28 223.16 36.344C223.288 36.408 223.384 36.408 223.448 36.344C223.512 36.28 223.544 36.088 223.544 35.768C223.544 35.576 223.64 35.288 223.832 34.904C224.024 34.456 224.216 34.104 224.408 33.848C224.472 33.656 224.6 33.304 224.792 32.792C224.984 32.216 225.144 31.704 225.272 31.256C225.464 30.744 225.496 30.488 225.368 30.488C225.24 30.424 225.176 30.36 225.176 30.296C225.176 30.168 225.368 30.04 225.752 29.912C226.136 29.784 226.104 29.688 225.656 29.624C225.528 29.56 225.56 29.432 225.752 29.24C225.944 29.048 225.848 28.92 225.464 28.856C225.144 28.792 225.016 28.696 225.08 28.568C225.208 28.44 225.304 28.344 225.368 28.28C225.56 28.088 225.656 27.896 225.656 27.704C225.656 27.128 225.496 26.552 225.176 25.976C224.92 25.4 224.632 24.888 224.312 24.44C223.928 24.696 223.736 24.824 223.736 24.824C223.672 24.824 223.64 24.824 223.64 24.824C223.64 24.76 223.576 24.728 223.448 24.728C223.384 24.728 223.352 24.728 223.352 24.728C223.352 24.664 223.32 24.632 223.256 24.632C223.192 24.632 223.128 24.664 223.064 24.728C223 24.792 222.968 24.824 222.968 24.824C222.904 24.888 222.776 24.92 222.584 24.92C222.456 24.92 222.36 24.92 222.296 24.92C222.232 24.92 222.168 24.888 222.104 24.824C222.104 24.76 222.072 24.728 222.008 24.728C221.944 24.728 221.848 24.792 221.72 24.92C221.656 25.048 221.56 25.112 221.432 25.112C221.368 25.112 221.336 25.08 221.336 25.016C221.336 24.952 221.272 24.92 221.144 24.92C221.08 24.92 221.016 24.952 220.952 25.016C220.952 25.08 220.92 25.112 220.856 25.112C220.792 25.112 220.664 25.016 220.472 24.824H220.376C220.376 25.208 220.28 25.4 220.088 25.4C220.024 25.4 219.928 25.336 219.8 25.208C219.096 25.656 217.912 26.712 216.248 28.376C214.584 29.976 213.112 31.832 211.832 33.944C211.576 34.456 211.256 35.064 210.872 35.768C210.552 36.472 210.264 37.272 210.008 38.168C209.944 38.552 209.752 38.84 209.432 39.032C209.176 39.224 208.984 39.448 208.856 39.704C208.792 39.96 208.824 40.12 208.952 40.184C209.08 40.248 209.176 40.344 209.24 40.472C209.24 40.728 209.176 41.08 209.048 41.528C208.984 41.976 208.952 42.392 208.952 42.776C208.952 43.992 209.176 44.856 209.624 45.368C210.136 45.88 210.712 46.136 211.352 46.136Z" fill="white"/>
</svg>
